<?xml version="1.0" encoding="UTF-8" standalone="no"?>
<!-- Created with Inkscape (http://www.inkscape.org/) -->

<svg
   version="1.1"
   id="svg2"
   width="944.88135"
   height="944.88135"
   viewBox="0 0 944.88135 944.88135"
   sodipodi:docname="tatamoto.fekete.ai"
   xmlns:inkscape="http://www.inkscape.org/namespaces/inkscape"
   xmlns:sodipodi="http://sodipodi.sourceforge.net/DTD/sodipodi-0.dtd"
   xmlns="http://www.w3.org/2000/svg"
   xmlns:svg="http://www.w3.org/2000/svg">
  <defs
     id="defs6">
    <clipPath
       clipPathUnits="userSpaceOnUse"
       id="clipPath16">
      <path
         d="M 0,708.661 H 708.661 V 0 H 0 Z"
         id="path14" />
    </clipPath>
  </defs>
  <sodipodi:namedview
     id="namedview4"
     pagecolor="#ffffff"
     bordercolor="#000000"
     borderopacity="0.25"
     inkscape:showpageshadow="2"
     inkscape:pageopacity="0.0"
     inkscape:pagecheckerboard="0"
     inkscape:deskcolor="#d1d1d1" />
  <g
     id="g8"
     inkscape:groupmode="layer"
     inkscape:label="tatamoto.fekete"
     transform="matrix(1.3333333,0,0,-1.3333333,0,944.88133)">
    <g
       id="g10">
      <g
         id="g12"
         clip-path="url(#clipPath16)">
        <g
           id="g18"
           transform="translate(103.5257,220.1319)">
          <path
             d="m 0,0 c -2.998,1.282 -6.265,2.679 -10.325,4.416 3.705,6.125 7.358,12.011 10.847,17.994 1.906,3.27 5.031,6.738 4.955,10.056 -0.133,5.829 -0.541,14.368 -4.107,16.649 -3.687,2.359 -13.124,0.597 -16.784,-2.84 -9.14,-8.584 -18.63,-18.125 -23.751,-29.234 -3.917,-8.496 -7.648,-9.242 -17.088,-7.688 3.084,8.227 5.801,15.914 8.885,23.451 0.996,2.435 3.119,4.382 4.441,6.714 4.441,7.835 7.451,21.107 13.374,22.546 13.868,3.368 29.11,1.076 44.353,1.076 C 19.618,39.469 25.117,16.939 0,0"
             style="fill:#000000;fill-opacity:1;fill-rule:nonzero;stroke:none"
             id="path20" />
        </g>
        <g
           id="g22"
           transform="translate(88.3241,194.864)">
          <path
             d="m 0,0 c -6.185,-1.311 -11.711,-4.279 -16.166,-3.123 -22.364,5.805 -30.964,1.102 -35.229,-21.16 -1.076,-5.616 -1.447,-11.367 -2.263,-18.048 6.964,-1.585 13.319,-3.032 19.876,-4.524 1.813,6.307 3.337,11.611 4.862,16.914 1.219,-0.067 2.438,-0.133 3.657,-0.2 0,-5.384 -0.831,-10.941 0.241,-16.103 1.007,-4.85 4.023,-9.282 7.408,-16.609 -16.516,3.362 -32.092,6.043 -47.314,10.064 -2.875,0.76 -6.835,7.553 -6.041,10.356 4.08,14.414 7.875,29.342 14.941,42.369 C -46.446,17.603 -15.289,18.021 0,0"
             style="fill:#000000;fill-opacity:1;fill-rule:nonzero;stroke:none"
             id="path24" />
        </g>
        <g
           id="g26"
           transform="translate(123.579,308.3633)">
          <path
             d="m 0,0 c 0.964,-3.867 1.892,-7.592 2.821,-11.317 -3.245,-0.586 -6.47,-1.386 -9.741,-1.681 -2.184,-0.198 -4.435,0.311 -6.653,0.526 -16.234,1.569 -16.187,1.958 -9.465,16.744 2.081,4.577 1.632,10.289 2.458,15.462 0.27,1.69 0.478,3.65 1.452,4.923 4.992,6.528 32.938,4.413 36.553,-2.877 1.043,-2.103 1.624,-6.263 0.456,-7.33 C 11.703,8.812 4.9,3.861 0,0"
             style="fill:#000000;fill-opacity:1;fill-rule:nonzero;stroke:none"
             id="path28" />
        </g>
        <g
           id="g30"
           transform="translate(67.5011,235.9382)">
          <path
             d="M 0,0 C 9.921,10.398 18.178,17.705 30.316,30.425 37.992,10.64 29.19,4.686 20.641,-3.624 18.023,-6.168 16.149,-5.04 13.067,-4.593 10.918,-4.281 8.762,-3.908 6.748,-3.093 4.357,-2.126 0.686,-1.729 0,0"
             style="fill:#000000;fill-opacity:1;fill-rule:nonzero;stroke:none"
             id="path32" />
        </g>
        <g
           id="g34"
           transform="translate(98.8549,188.5296)">
          <path
             d="m 0,0 c -1.707,-5.206 -1.984,-8.836 -3.846,-11.23 -6.637,-8.534 -15.716,-15.526 -13.946,-28.463 0.247,-1.804 -4.465,-4.287 -6.881,-6.456 -1.936,2.448 -4.846,4.614 -5.646,7.39 -4.712,16.333 6.913,26.43 15.654,37.112 C -12.772,0.666 -6.519,-0.593 0,0"
             style="fill:#000000;fill-opacity:1;fill-rule:nonzero;stroke:none"
             id="path36" />
        </g>
        <g
           id="g38"
           transform="translate(60.0767,224.4312)">
          <path
             d="m 0,0 c 11.251,-2.097 22.684,-3.571 33.621,-6.75 2.593,-0.754 3.524,-7.232 5.219,-11.076 -3.281,-0.515 -7.847,-2.675 -9.634,-1.278 -11.288,8.826 -24.225,7.184 -37.042,7.496 -3.708,0.091 -7.364,2.281 -11.044,3.509 3.55,2.299 6.898,5.065 10.726,6.718 2.253,0.973 5.268,0.178 7.941,0.178 C -0.142,-0.802 -0.071,-0.401 0,0"
             style="fill:#000000;fill-opacity:1;fill-rule:nonzero;stroke:none"
             id="path40" />
        </g>
        <g
           id="g42"
           transform="translate(89.7227,576.6504)">
          <path
             d="m 0,0 v -21.585 h 5.396 v 13.491 h 45.869 v -13.491 h 148.398 v 13.491 h 45.868 v -13.491 h 5.397 V 0 Z"
             style="fill:#000000;fill-opacity:1;fill-rule:nonzero;stroke:none"
             id="path44" />
        </g>
        <path
           d="m 130.195,549.669 h -24.283 v 8.094 h 24.283 z"
           style="fill:#000000;fill-opacity:1;fill-rule:nonzero;stroke:none"
           id="path46" />
        <path
           d="m 324.461,549.669 h -24.283 v 8.094 h 24.283 z"
           style="fill:#000000;fill-opacity:1;fill-rule:nonzero;stroke:none"
           id="path48" />
        <g
           id="g50"
           transform="translate(205.743,549.6689)">
          <path
             d="m 0,0 h 22.906 l -84.963,-199.663 -18.887,10.793 z"
             style="fill:#000000;fill-opacity:1;fill-rule:nonzero;stroke:none"
             id="path52" />
        </g>
        <g
           id="g54"
           transform="translate(454.2848,220.1319)">
          <path
             d="m 0,0 c -2.998,1.282 -6.265,2.679 -10.325,4.416 3.705,6.125 7.358,12.011 10.847,17.994 1.906,3.27 5.031,6.738 4.955,10.056 -0.133,5.829 -0.541,14.368 -4.107,16.649 -3.687,2.359 -13.124,0.597 -16.784,-2.84 -9.14,-8.584 -18.63,-18.125 -23.751,-29.234 -3.917,-8.496 -7.648,-9.242 -17.088,-7.688 3.084,8.227 5.801,15.914 8.885,23.451 0.996,2.435 3.119,4.382 4.441,6.714 4.44,7.835 7.451,21.107 13.374,22.546 13.868,3.368 29.11,1.076 44.353,1.076 C 19.618,39.469 25.117,16.939 0,0"
             style="fill:#000000;fill-opacity:1;fill-rule:nonzero;stroke:none"
             id="path56" />
        </g>
        <g
           id="g58"
           transform="translate(439.0832,194.864)">
          <path
             d="m 0,0 c -6.185,-1.311 -11.711,-4.279 -16.166,-3.123 -22.364,5.805 -30.964,1.102 -35.229,-21.16 -1.076,-5.616 -1.447,-11.367 -2.263,-18.048 6.964,-1.585 13.319,-3.032 19.876,-4.524 1.813,6.307 3.337,11.611 4.862,16.914 1.219,-0.067 2.438,-0.133 3.657,-0.2 0,-5.384 -0.831,-10.941 0.241,-16.103 1.007,-4.85 4.023,-9.282 7.407,-16.609 -16.515,3.362 -32.091,6.043 -47.313,10.064 -2.875,0.76 -6.835,7.553 -6.041,10.356 4.08,14.414 7.875,29.342 14.941,42.369 C -46.446,17.603 -15.289,18.021 0,0"
             style="fill:#000000;fill-opacity:1;fill-rule:nonzero;stroke:none"
             id="path60" />
        </g>
        <g
           id="g62"
           transform="translate(474.3381,308.3633)">
          <path
             d="m 0,0 c 0.964,-3.867 1.892,-7.592 2.821,-11.317 -3.245,-0.586 -6.47,-1.386 -9.741,-1.681 -2.184,-0.198 -4.435,0.311 -6.653,0.526 -16.234,1.569 -16.187,1.958 -9.465,16.744 2.081,4.577 1.632,10.289 2.458,15.462 0.269,1.69 0.478,3.65 1.452,4.923 4.992,6.528 32.938,4.413 36.553,-2.877 1.043,-2.103 1.624,-6.263 0.456,-7.33 C 11.703,8.812 4.9,3.861 0,0"
             style="fill:#000000;fill-opacity:1;fill-rule:nonzero;stroke:none"
             id="path64" />
        </g>
        <g
           id="g66"
           transform="translate(418.2601,235.9382)">
          <path
             d="M 0,0 C 9.921,10.398 18.178,17.705 30.316,30.425 37.992,10.64 29.19,4.686 20.641,-3.624 18.023,-6.168 16.149,-5.04 13.067,-4.593 10.918,-4.281 8.762,-3.908 6.748,-3.093 4.357,-2.126 0.686,-1.729 0,0"
             style="fill:#000000;fill-opacity:1;fill-rule:nonzero;stroke:none"
             id="path68" />
        </g>
        <g
           id="g70"
           transform="translate(449.614,188.5296)">
          <path
             d="m 0,0 c -1.707,-5.206 -1.984,-8.836 -3.846,-11.23 -6.637,-8.534 -15.716,-15.526 -13.946,-28.463 0.247,-1.804 -4.465,-4.287 -6.881,-6.456 -1.936,2.448 -4.846,4.614 -5.646,7.39 -4.712,16.333 6.913,26.43 15.654,37.112 C -12.772,0.666 -6.519,-0.593 0,0"
             style="fill:#000000;fill-opacity:1;fill-rule:nonzero;stroke:none"
             id="path72" />
        </g>
        <g
           id="g74"
           transform="translate(410.8358,224.4312)">
          <path
             d="m 0,0 c 11.251,-2.097 22.684,-3.571 33.621,-6.75 2.593,-0.754 3.524,-7.232 5.219,-11.076 -3.281,-0.515 -7.847,-2.675 -9.634,-1.278 -11.288,8.826 -24.225,7.184 -37.042,7.496 -3.708,0.091 -7.364,2.281 -11.044,3.509 3.55,2.299 6.897,5.065 10.726,6.718 2.253,0.973 5.268,0.178 7.941,0.178 C -0.142,-0.802 -0.071,-0.401 0,0"
             style="fill:#000000;fill-opacity:1;fill-rule:nonzero;stroke:none"
             id="path76" />
        </g>
        <g
           id="g78"
           transform="translate(440.4817,576.6504)">
          <path
             d="m 0,0 v -21.585 h 5.396 v 13.491 h 45.869 v -13.491 h 148.398 v 13.491 h 45.868 v -13.491 h 5.397 V 0 Z"
             style="fill:#000000;fill-opacity:1;fill-rule:nonzero;stroke:none"
             id="path80" />
        </g>
        <path
           d="m 480.954,549.669 h -24.283 v 8.094 h 24.283 z"
           style="fill:#000000;fill-opacity:1;fill-rule:nonzero;stroke:none"
           id="path82" />
        <path
           d="m 675.22,549.669 h -24.283 v 8.094 h 24.283 z"
           style="fill:#000000;fill-opacity:1;fill-rule:nonzero;stroke:none"
           id="path84" />
        <g
           id="g86"
           transform="translate(556.502,549.6689)">
          <path
             d="m 0,0 h 22.906 l -84.963,-199.663 -18.887,10.793 z"
             style="fill:#000000;fill-opacity:1;fill-rule:nonzero;stroke:none"
             id="path88" />
        </g>
        <g
           id="g90"
           transform="translate(210.2078,383.6183)">
          <path
             d="m 0,0 c 1.622,3.36 2.78,6.254 2.78,9.613 0,3.127 -1.158,6.833 -5.444,6.833 -10.654,0 -23.046,-24.436 -23.046,-35.438 0,-2.664 1.158,-4.054 3.126,-4.054 5.792,0 20.5,18.762 22.584,23.046 m 14.592,20.152 c 0.464,0 0.58,-0.58 0.348,-1.042 C 12.74,14.362 6.834,-1.62 6.254,-3.474 5.56,-5.442 0.696,-19.804 0.696,-20.846 c 0,-1.042 0.578,-1.39 1.274,-1.39 1.388,0 7.296,6.022 8.106,7.066 0.348,0.346 0.694,0.578 0.926,0.23 l 1.042,-1.158 c 0.348,-0.346 0.464,-0.578 0.232,-0.926 -1.274,-2.316 -11.35,-12.16 -17.95,-12.16 -1.39,0 -2.432,0.464 -2.432,1.968 0,1.738 1.158,5.328 5.558,17.604 l -0.578,0.232 c -4.864,-7.412 -16.562,-19.804 -24.784,-19.804 -2.664,0 -6.254,2.2 -6.254,7.412 0,16.908 18.992,41.924 33.122,41.924 4.864,0 7.064,-2.084 8.222,-3.938 l 2.202,3.128 c 0.346,0.462 0.694,0.81 1.158,0.81 z"
             style="fill:#000000;fill-opacity:1;fill-rule:nonzero;stroke:none"
             id="path92" />
        </g>
        <g
           id="g94"
           transform="translate(210.2078,383.6183)">
          <path
             d="m 0,0 c 1.622,3.36 2.78,6.254 2.78,9.613 0,3.127 -1.158,6.833 -5.444,6.833 -10.654,0 -23.046,-24.436 -23.046,-35.438 0,-2.664 1.158,-4.054 3.126,-4.054 5.792,0 20.5,18.762 22.584,23.046 z m 14.592,20.152 c 0.464,0 0.58,-0.58 0.348,-1.042 C 12.74,14.362 6.834,-1.62 6.254,-3.474 5.56,-5.442 0.696,-19.804 0.696,-20.846 c 0,-1.042 0.578,-1.39 1.274,-1.39 1.388,0 7.296,6.022 8.106,7.066 0.348,0.346 0.694,0.578 0.926,0.23 l 1.042,-1.158 c 0.348,-0.346 0.464,-0.578 0.232,-0.926 -1.274,-2.316 -11.35,-12.16 -17.95,-12.16 -1.39,0 -2.432,0.464 -2.432,1.968 0,1.738 1.158,5.328 5.558,17.604 l -0.578,0.232 c -4.864,-7.412 -16.562,-19.804 -24.784,-19.804 -2.664,0 -6.254,2.2 -6.254,7.412 0,16.908 18.992,41.924 33.122,41.924 4.864,0 7.064,-2.084 8.222,-3.938 l 2.202,3.128 c 0.346,0.462 0.694,0.81 1.158,0.81 z"
             style="fill:none;stroke:#000000;stroke-width:3.238;stroke-linecap:butt;stroke-linejoin:miter;stroke-miterlimit:10;stroke-dasharray:none;stroke-opacity:1"
             id="path96" />
        </g>
        <g
           id="g98"
           transform="translate(245.5314,396.3581)">
          <path
             d="m 0,0 h -8.106 c -0.696,0 -0.926,0.232 -0.696,0.926 l 0.928,2.548 c 0.23,0.58 0.578,0.812 1.274,0.812 H 1.738 L 7.76,17.72 c 0.578,1.158 0.926,1.39 1.852,1.736 1.274,0.348 4.286,1.506 5.212,1.97 0.696,0.346 1.274,0.694 1.738,0.694 0.694,0 0.926,-0.694 0.116,-2.316 L 9.034,4.286 h 11.812 c 0.58,0 0.812,-0.348 0.464,-1.274 L 20.268,0.58 C 20.152,0.232 19.688,0 19.226,0 H 7.412 L -3.822,-26.058 c -1.39,-3.242 -2.664,-6.138 -2.664,-7.412 0,-1.274 0.464,-1.968 1.506,-1.968 3.36,0 10.886,6.6 11.582,7.412 0.348,0.462 0.694,0.346 1.042,0 l 1.274,-1.39 c 0.348,-0.348 0.348,-0.58 0.116,-1.042 -1.506,-1.854 -12.276,-11.466 -21.194,-11.466 -2.896,0 -3.706,1.158 -3.706,2.78 0,1.736 0.58,3.706 1.274,5.442 z"
             style="fill:#000000;fill-opacity:1;fill-rule:nonzero;stroke:none"
             id="path100" />
        </g>
        <g
           id="g102"
           transform="translate(245.5314,396.3581)">
          <path
             d="m 0,0 h -8.106 c -0.696,0 -0.926,0.232 -0.696,0.926 l 0.928,2.548 c 0.23,0.58 0.578,0.812 1.274,0.812 H 1.738 L 7.76,17.72 c 0.578,1.158 0.926,1.39 1.852,1.736 1.274,0.348 4.286,1.506 5.212,1.97 0.696,0.346 1.274,0.694 1.738,0.694 0.694,0 0.926,-0.694 0.116,-2.316 L 9.034,4.286 h 11.812 c 0.58,0 0.812,-0.348 0.464,-1.274 L 20.268,0.58 C 20.152,0.232 19.688,0 19.226,0 H 7.412 L -3.822,-26.058 c -1.39,-3.242 -2.664,-6.138 -2.664,-7.412 0,-1.274 0.464,-1.968 1.506,-1.968 3.36,0 10.886,6.6 11.582,7.412 0.348,0.462 0.694,0.346 1.042,0 l 1.274,-1.39 c 0.348,-0.348 0.348,-0.58 0.116,-1.042 -1.506,-1.854 -12.276,-11.466 -21.194,-11.466 -2.896,0 -3.706,1.158 -3.706,2.78 0,1.736 0.58,3.706 1.274,5.442 z"
             style="fill:none;stroke:#000000;stroke-width:3.238;stroke-linecap:butt;stroke-linejoin:miter;stroke-miterlimit:10;stroke-dasharray:none;stroke-opacity:1"
             id="path104" />
        </g>
        <g
           id="g106"
           transform="translate(297.5326,383.6183)">
          <path
             d="m 0,0 c 1.622,3.36 2.78,6.254 2.78,9.613 0,3.127 -1.158,6.833 -5.444,6.833 -10.654,0 -23.046,-24.436 -23.046,-35.438 0,-2.664 1.158,-4.054 3.126,-4.054 5.792,0 20.5,18.762 22.584,23.046 m 14.592,20.152 c 0.464,0 0.58,-0.58 0.348,-1.042 C 12.74,14.362 6.834,-1.62 6.254,-3.474 5.56,-5.442 0.696,-19.804 0.696,-20.846 c 0,-1.042 0.578,-1.39 1.274,-1.39 1.388,0 7.296,6.022 8.106,7.066 0.348,0.346 0.694,0.578 0.926,0.23 l 1.042,-1.158 c 0.348,-0.346 0.464,-0.578 0.232,-0.926 -1.274,-2.316 -11.35,-12.16 -17.95,-12.16 -1.39,0 -2.432,0.464 -2.432,1.968 0,1.738 1.158,5.328 5.558,17.604 l -0.578,0.232 c -4.864,-7.412 -16.562,-19.804 -24.784,-19.804 -2.664,0 -6.254,2.2 -6.254,7.412 0,16.908 18.992,41.924 33.122,41.924 4.864,0 7.064,-2.084 8.222,-3.938 l 2.202,3.128 c 0.346,0.462 0.694,0.81 1.158,0.81 z"
             style="fill:#000000;fill-opacity:1;fill-rule:nonzero;stroke:none"
             id="path108" />
        </g>
        <g
           id="g110"
           transform="translate(297.5326,383.6183)">
          <path
             d="m 0,0 c 1.622,3.36 2.78,6.254 2.78,9.613 0,3.127 -1.158,6.833 -5.444,6.833 -10.654,0 -23.046,-24.436 -23.046,-35.438 0,-2.664 1.158,-4.054 3.126,-4.054 5.792,0 20.5,18.762 22.584,23.046 z m 14.592,20.152 c 0.464,0 0.58,-0.58 0.348,-1.042 C 12.74,14.362 6.834,-1.62 6.254,-3.474 5.56,-5.442 0.696,-19.804 0.696,-20.846 c 0,-1.042 0.578,-1.39 1.274,-1.39 1.388,0 7.296,6.022 8.106,7.066 0.348,0.346 0.694,0.578 0.926,0.23 l 1.042,-1.158 c 0.348,-0.346 0.464,-0.578 0.232,-0.926 -1.274,-2.316 -11.35,-12.16 -17.95,-12.16 -1.39,0 -2.432,0.464 -2.432,1.968 0,1.738 1.158,5.328 5.558,17.604 l -0.578,0.232 c -4.864,-7.412 -16.562,-19.804 -24.784,-19.804 -2.664,0 -6.254,2.2 -6.254,7.412 0,16.908 18.992,41.924 33.122,41.924 4.864,0 7.064,-2.084 8.222,-3.938 l 2.202,3.128 c 0.346,0.462 0.694,0.81 1.158,0.81 z"
             style="fill:none;stroke:#000000;stroke-width:3.238;stroke-linecap:butt;stroke-linejoin:miter;stroke-miterlimit:10;stroke-dasharray:none;stroke-opacity:1"
             id="path112" />
        </g>
        <g
           id="g114"
           transform="translate(343.3972,422.1841)">
          <path
             d="m 0,0 c 0.462,1.274 0.81,2.78 0.81,3.822 0,2.2 -2.664,3.242 -6.022,3.242 h -4.17 c -1.042,0 -1.504,0.464 -1.39,1.158 l 0.464,1.97 c 0.232,0.81 0.464,1.158 1.274,1.158 1.158,0 5.906,-0.348 22.7,-0.348 1.852,0 2.084,-0.694 2.316,-2.664 l 5.558,-55.936 c 0.348,-3.012 1.39,-3.012 2.896,-0.928 L 65.318,9.15 c 0.812,1.158 1.505,1.852 3.012,1.852 12.853,0 16.56,0.348 18.065,0.348 0.811,0 1.159,-0.348 1.043,-0.926 L 86.974,7.992 C 86.858,7.296 86.627,7.064 85.818,7.064 h -3.476 c -2.78,0 -4.284,-2.894 -5.907,-8.57 l -14.94,-53.968 c -1.273,-4.98 0.464,-7.18 3.475,-7.18 h 3.592 c 0.693,0 0.924,-0.348 0.809,-0.926 l -0.464,-2.432 c -0.116,-0.696 -0.229,-0.928 -1.389,-0.928 -1.388,0 -5.212,0.348 -13.435,0.348 -9.38,0 -13.897,-0.348 -15.055,-0.348 -1.042,0 -1.158,0.348 -1.042,1.158 l 0.232,1.97 c 0.116,0.694 0.347,1.158 1.274,1.158 h 3.01 c 5.792,0 8.224,3.242 9.613,8.222 L 67.634,1.506 C 68.098,3.358 66.591,3.358 65.782,2.2 L 18.298,-64.854 c -1.738,-2.548 -4.402,-2.548 -4.632,0.81 L 7.064,1.158 c -0.232,2.2 -1.274,2.2 -1.853,0.58 l -18.993,-56.17 c -2.316,-6.716 0,-8.222 2.548,-8.222 h 4.053 c 0.811,0 0.927,-0.348 0.811,-1.158 l -0.348,-2.2 c -0.116,-0.58 -0.463,-0.928 -1.39,-0.928 -1.274,0 -4.864,0.348 -11.928,0.348 -6.486,0 -9.96,-0.348 -11.234,-0.348 -0.579,0 -0.81,0.348 -0.694,0.928 l 0.462,2.432 c 0.116,0.694 0.232,0.926 0.812,0.926 h 2.316 c 6.254,0 7.758,3.358 9.38,7.99 z"
             style="fill:#000000;fill-opacity:1;fill-rule:nonzero;stroke:none"
             id="path116" />
        </g>
        <g
           id="g118"
           transform="translate(343.3972,422.1841)">
          <path
             d="m 0,0 c 0.462,1.274 0.81,2.78 0.81,3.822 0,2.2 -2.664,3.242 -6.022,3.242 h -4.17 c -1.042,0 -1.504,0.464 -1.39,1.158 l 0.464,1.97 c 0.232,0.81 0.464,1.158 1.274,1.158 1.158,0 5.906,-0.348 22.7,-0.348 1.852,0 2.084,-0.694 2.316,-2.664 l 5.558,-55.936 c 0.348,-3.012 1.39,-3.012 2.896,-0.928 L 65.318,9.15 c 0.812,1.158 1.505,1.852 3.012,1.852 12.853,0 16.56,0.348 18.065,0.348 0.811,0 1.159,-0.348 1.043,-0.926 L 86.974,7.992 C 86.858,7.296 86.627,7.064 85.818,7.064 h -3.476 c -2.78,0 -4.284,-2.894 -5.907,-8.57 l -14.94,-53.968 c -1.273,-4.98 0.464,-7.18 3.475,-7.18 h 3.592 c 0.693,0 0.924,-0.348 0.809,-0.926 l -0.464,-2.432 c -0.116,-0.696 -0.229,-0.928 -1.389,-0.928 -1.388,0 -5.212,0.348 -13.435,0.348 -9.38,0 -13.897,-0.348 -15.055,-0.348 -1.042,0 -1.158,0.348 -1.042,1.158 l 0.232,1.97 c 0.116,0.694 0.347,1.158 1.274,1.158 h 3.01 c 5.792,0 8.224,3.242 9.613,8.222 L 67.634,1.506 C 68.098,3.358 66.591,3.358 65.782,2.2 L 18.298,-64.854 c -1.738,-2.548 -4.402,-2.548 -4.632,0.81 L 7.064,1.158 c -0.232,2.2 -1.274,2.2 -1.853,0.58 l -18.993,-56.17 c -2.316,-6.716 0,-8.222 2.548,-8.222 h 4.053 c 0.811,0 0.927,-0.348 0.811,-1.158 l -0.348,-2.2 c -0.116,-0.58 -0.463,-0.928 -1.39,-0.928 -1.274,0 -4.864,0.348 -11.928,0.348 -6.486,0 -9.96,-0.348 -11.234,-0.348 -0.579,0 -0.81,0.348 -0.694,0.928 l 0.462,2.432 c 0.116,0.694 0.232,0.926 0.812,0.926 h 2.316 c 6.254,0 7.758,3.358 9.38,7.99 z"
             style="fill:none;stroke:#000000;stroke-width:3.238;stroke-linecap:butt;stroke-linejoin:miter;stroke-miterlimit:10;stroke-dasharray:none;stroke-opacity:1"
             id="path120" />
        </g>
        <g
           id="g122"
           transform="translate(460.9523,391.9578)">
          <path
             d="m 0,0 c 0.116,3.59 -1.968,6.484 -5.792,6.484 -4.864,0 -11,-4.4 -16.792,-13.781 -3.939,-6.253 -6.716,-13.319 -6.716,-18.761 0,-3.706 2.548,-5.907 5.325,-5.907 C -11.928,-31.965 0,-7.644 0,0 m -34.164,-22.584 c 0,14.592 11.001,34.396 26.404,34.396 7.76,0 12.392,-5.674 12.392,-13.55 0,-12.74 -10.076,-35.786 -26.868,-35.786 -6.371,0 -11.928,6.138 -11.928,14.94"
             style="fill:#000000;fill-opacity:1;fill-rule:nonzero;stroke:none"
             id="path124" />
        </g>
        <g
           id="g126"
           transform="translate(460.9523,391.9578)">
          <path
             d="m 0,0 c 0.116,3.59 -1.968,6.484 -5.792,6.484 -4.864,0 -11,-4.4 -16.792,-13.781 -3.939,-6.253 -6.716,-13.319 -6.716,-18.761 0,-3.706 2.548,-5.907 5.325,-5.907 C -11.928,-31.965 0,-7.644 0,0 Z m -34.164,-22.584 c 0,14.592 11.001,34.396 26.404,34.396 7.76,0 12.392,-5.674 12.392,-13.55 0,-12.74 -10.076,-35.786 -26.868,-35.786 -6.371,0 -11.928,6.138 -11.928,14.94 z"
             style="fill:none;stroke:#000000;stroke-width:3.238;stroke-linecap:butt;stroke-linejoin:miter;stroke-miterlimit:10;stroke-dasharray:none;stroke-opacity:1"
             id="path128" />
        </g>
        <g
           id="g130"
           transform="translate(557.6548,391.9578)">
          <path
             d="m 0,0 c 0.116,3.59 -1.968,6.484 -5.79,6.484 -4.864,0 -11.002,-4.4 -16.793,-13.781 -3.937,-6.253 -6.717,-13.319 -6.717,-18.761 0,-3.706 2.548,-5.907 5.328,-5.907 C -11.928,-31.965 0,-7.644 0,0 m -34.164,-22.584 c 0,14.592 11.002,34.396 26.406,34.396 7.758,0 12.391,-5.674 12.391,-13.55 0,-12.74 -10.075,-35.786 -26.869,-35.786 -6.369,0 -11.928,6.138 -11.928,14.94"
             style="fill:#000000;fill-opacity:1;fill-rule:nonzero;stroke:none"
             id="path132" />
        </g>
        <g
           id="g134"
           transform="translate(557.6548,391.9578)">
          <path
             d="m 0,0 c 0.116,3.59 -1.968,6.484 -5.79,6.484 -4.864,0 -11.002,-4.4 -16.793,-13.781 -3.937,-6.253 -6.717,-13.319 -6.717,-18.761 0,-3.706 2.548,-5.907 5.328,-5.907 C -11.928,-31.965 0,-7.644 0,0 Z m -34.164,-22.584 c 0,14.592 11.002,34.396 26.406,34.396 7.758,0 12.391,-5.674 12.391,-13.55 0,-12.74 -10.075,-35.786 -26.869,-35.786 -6.369,0 -11.928,6.138 -11.928,14.94 z"
             style="fill:none;stroke:#000000;stroke-width:3.238;stroke-linecap:butt;stroke-linejoin:miter;stroke-miterlimit:10;stroke-dasharray:none;stroke-opacity:1"
             id="path136" />
        </g>
      </g>
    </g>
  </g>
</svg>
